%TF.GenerationSoftware,KiCad,Pcbnew,(6.0.1)*%
%TF.CreationDate,2022-06-05T22:57:28-04:00*%
%TF.ProjectId,sweep-squared,73776565-702d-4737-9175-617265642e6b,rev?*%
%TF.SameCoordinates,Original*%
%TF.FileFunction,Copper,L2,Bot*%
%TF.FilePolarity,Positive*%
%FSLAX46Y46*%
G04 Gerber Fmt 4.6, Leading zero omitted, Abs format (unit mm)*
G04 Created by KiCad (PCBNEW (6.0.1)) date 2022-06-05 22:57:28*
%MOMM*%
%LPD*%
G01*
G04 APERTURE LIST*
%TA.AperFunction,ComponentPad*%
%ADD10C,2.032000*%
%TD*%
%TA.AperFunction,ComponentPad*%
%ADD11C,2.000000*%
%TD*%
%TA.AperFunction,WasherPad*%
%ADD12C,1.000000*%
%TD*%
%TA.AperFunction,ComponentPad*%
%ADD13C,1.397000*%
%TD*%
%TA.AperFunction,ComponentPad*%
%ADD14C,1.524000*%
%TD*%
G04 APERTURE END LIST*
D10*
%TO.P,MX3,2,ROW*%
%TO.N,Net-(D3-Pad2)*%
X99245752Y-64655270D03*
%TO.P,MX3,1,COL*%
%TO.N,col3*%
X103225973Y-68338725D03*
%TD*%
%TO.P,MX23,2,ROW*%
%TO.N,Net-(D23-Pad2)*%
X214036521Y-84107127D03*
%TO.P,MX23,1,COL*%
%TO.N,col8*%
X219453227Y-84370380D03*
%TD*%
%TO.P,MX18,2,ROW*%
%TO.N,Net-(D18-Pad2)*%
X208222178Y-68132352D03*
%TO.P,MX18,1,COL*%
%TO.N,col8*%
X213638884Y-68395605D03*
%TD*%
%TO.P,MX8,2,ROW*%
%TO.N,Net-(D8-Pad2)*%
X93431409Y-80630044D03*
%TO.P,MX8,1,COL*%
%TO.N,col3*%
X97411630Y-84313499D03*
%TD*%
%TO.P,MX7,2,ROW*%
%TO.N,Net-(D7-Pad2)*%
X74191205Y-80863592D03*
%TO.P,MX7,1,COL*%
%TO.N,col2*%
X78171426Y-84547047D03*
%TD*%
%TO.P,MX11,2,ROW*%
%TO.N,Net-(D11-Pad2)*%
X47392356Y-101864345D03*
%TO.P,MX11,1,COL*%
%TO.N,col1*%
X51372577Y-105547800D03*
%TD*%
%TO.P,MX30,2,ROW*%
%TO.N,Net-(D30-Pad2)*%
X260075574Y-105341429D03*
%TO.P,MX30,1,COL*%
%TO.N,col10*%
X265492280Y-105604682D03*
%TD*%
%TO.P,MX13,2,ROW*%
%TO.N,Net-(D13-Pad2)*%
X87617067Y-96604819D03*
%TO.P,MX13,1,COL*%
%TO.N,col3*%
X91597288Y-100288274D03*
%TD*%
%TO.P,MX26,2,ROW*%
%TO.N,Net-(D26-Pad2)*%
X188929100Y-120382014D03*
%TO.P,MX26,1,COL*%
%TO.N,col6*%
X194345806Y-120645267D03*
%TD*%
%TO.P,MX5,2,ROW*%
%TO.N,Net-(D5-Pad2)*%
X130167515Y-84955383D03*
%TO.P,MX5,1,COL*%
%TO.N,col5*%
X134147736Y-88638838D03*
%TD*%
%TO.P,MX16,2,ROW*%
%TO.N,Net-(D16-Pad2)*%
X177300415Y-88432465D03*
%TO.P,MX16,1,COL*%
%TO.N,col6*%
X182717121Y-88695718D03*
%TD*%
%TO.P,MX4,2,ROW*%
%TO.N,Net-(D4-Pad2)*%
X114415916Y-75604065D03*
%TO.P,MX4,1,COL*%
%TO.N,col4*%
X118396137Y-79287520D03*
%TD*%
%TO.P,MX21,2,ROW*%
%TO.N,Net-(D21-Pad2)*%
X183114757Y-104407239D03*
%TO.P,MX21,1,COL*%
%TO.N,col6*%
X188531463Y-104670492D03*
%TD*%
D11*
%TO.P,RSW1,2,2*%
%TO.N,reset*%
X132689375Y-62935643D03*
%TO.P,RSW1,1,1*%
%TO.N,gnd*%
X139090625Y-64064357D03*
%TD*%
D10*
%TO.P,MX10,2,ROW*%
%TO.N,Net-(D10-Pad2)*%
X124353173Y-100930156D03*
%TO.P,MX10,1,COL*%
%TO.N,col5*%
X128333394Y-104613611D03*
%TD*%
D12*
%TO.P,SW_POWER1,*%
%TO.N,*%
X182672788Y-62490472D03*
X185627212Y-61969528D03*
%TD*%
D10*
%TO.P,MX24,2,ROW*%
%TO.N,Net-(D24-Pad2)*%
X233276725Y-84340674D03*
%TO.P,MX24,1,COL*%
%TO.N,col9*%
X238693431Y-84603927D03*
%TD*%
%TO.P,MX1,2,ROW*%
%TO.N,Net-(D1-Pad2)*%
X59021041Y-69914797D03*
%TO.P,MX1,1,COL*%
%TO.N,col1*%
X63001262Y-73598252D03*
%TD*%
%TO.P,MX31,2,ROW*%
%TO.N,Net-(D31-Pad2)*%
X113604140Y-133768296D03*
%TO.P,MX31,1,COL*%
%TO.N,col1*%
X116884267Y-138086949D03*
%TD*%
%TO.P,MX28,2,ROW*%
%TO.N,Net-(D28-Pad2)*%
X219850863Y-100081901D03*
%TO.P,MX28,1,COL*%
%TO.N,col8*%
X225267569Y-100345154D03*
%TD*%
%TO.P,MX33,2,ROW*%
%TO.N,Net-(D33-Pad2)*%
X180470517Y-152290569D03*
%TO.P,MX33,1,COL*%
%TO.N,col3*%
X185293148Y-149810201D03*
%TD*%
D13*
%TO.P,Bat+1,1,1*%
%TO.N,BT+*%
X166056400Y-66300000D03*
%TD*%
D10*
%TO.P,MX2,2,ROW*%
%TO.N,Net-(D2-Pad2)*%
X80005548Y-64888817D03*
%TO.P,MX2,1,COL*%
%TO.N,col2*%
X83985769Y-68572272D03*
%TD*%
%TO.P,MX17,2,ROW*%
%TO.N,Net-(D17-Pad2)*%
X193052014Y-79081147D03*
%TO.P,MX17,1,COL*%
%TO.N,col7*%
X198468720Y-79344400D03*
%TD*%
D13*
%TO.P,BatGND1,1,1*%
%TO.N,gnd*%
X150848939Y-66214876D03*
%TD*%
D10*
%TO.P,MX27,2,ROW*%
%TO.N,Net-(D27-Pad2)*%
X204680699Y-111030697D03*
%TO.P,MX27,1,COL*%
%TO.N,col7*%
X210097405Y-111293950D03*
%TD*%
%TO.P,MX14,2,ROW*%
%TO.N,Net-(D14-Pad2)*%
X102787231Y-107553614D03*
%TO.P,MX14,1,COL*%
%TO.N,col4*%
X106767452Y-111237069D03*
%TD*%
%TO.P,MX15,2,ROW*%
%TO.N,Net-(D15-Pad2)*%
X118538830Y-116904931D03*
%TO.P,MX15,1,COL*%
%TO.N,col5*%
X122519051Y-120588386D03*
%TD*%
%TO.P,MX20,2,ROW*%
%TO.N,Net-(D20-Pad2)*%
X248446889Y-73391879D03*
%TO.P,MX20,1,COL*%
%TO.N,col10*%
X253863595Y-73655132D03*
%TD*%
%TO.P,MX22,2,ROW*%
%TO.N,Net-(D22-Pad2)*%
X198866356Y-95055922D03*
%TO.P,MX22,1,COL*%
%TO.N,col7*%
X204283062Y-95319175D03*
%TD*%
%TO.P,MX34,2,ROW*%
%TO.N,Net-(D34-Pad2)*%
X194419873Y-139140897D03*
%TO.P,MX34,1,COL*%
%TO.N,col4*%
X199800000Y-138459550D03*
%TD*%
%TO.P,MX6,2,ROW*%
%TO.N,Net-(D6-Pad2)*%
X53206698Y-85889572D03*
%TO.P,MX6,1,COL*%
%TO.N,col1*%
X57186919Y-89573027D03*
%TD*%
%TO.P,MX25,2,ROW*%
%TO.N,Net-(D25-Pad2)*%
X254261232Y-89366654D03*
%TO.P,MX25,1,COL*%
%TO.N,col10*%
X259677938Y-89629907D03*
%TD*%
%TO.P,MX9,2,ROW*%
%TO.N,Net-(D9-Pad2)*%
X108601574Y-91578840D03*
%TO.P,MX9,1,COL*%
%TO.N,col4*%
X112581795Y-95262295D03*
%TD*%
%TO.P,MX12,2,ROW*%
%TO.N,Net-(D12-Pad2)*%
X68376863Y-96838366D03*
%TO.P,MX12,1,COL*%
%TO.N,col2*%
X72357084Y-100521821D03*
%TD*%
%TO.P,MX32,2,ROW*%
%TO.N,Net-(D32-Pad2)*%
X129765093Y-144299855D03*
%TO.P,MX32,1,COL*%
%TO.N,col2*%
X131370338Y-149479931D03*
%TD*%
%TO.P,MX29,2,ROW*%
%TO.N,Net-(D29-Pad2)*%
X239091067Y-100315448D03*
%TO.P,MX29,1,COL*%
%TO.N,col9*%
X244507773Y-100578701D03*
%TD*%
%TO.P,MX19,2,ROW*%
%TO.N,Net-(D19-Pad2)*%
X227462382Y-68365900D03*
%TO.P,MX19,1,COL*%
%TO.N,col9*%
X232879088Y-68629153D03*
%TD*%
D14*
%TO.P,U1,24,RAW*%
%TO.N,raw*%
X150836400Y-68822000D03*
%TO.P,U1,23,GND*%
%TO.N,gnd*%
X150836400Y-71362000D03*
%TO.P,U1,22,RST*%
%TO.N,reset*%
X150836400Y-73902000D03*
%TO.P,U1,21,VCC*%
%TO.N,unconnected-(U1-Pad21)*%
X150836400Y-76442000D03*
%TO.P,U1,20,F4*%
%TO.N,row1*%
X150836400Y-78982000D03*
%TO.P,U1,19,F5*%
%TO.N,unconnected-(U1-Pad19)*%
X150836400Y-81522000D03*
%TO.P,U1,18,F6*%
%TO.N,col3*%
X150836400Y-84062000D03*
%TO.P,U1,17,F7*%
%TO.N,col5*%
X150836400Y-86602000D03*
%TO.P,U1,16,B1*%
%TO.N,col4*%
X150836400Y-89142000D03*
%TO.P,U1,15,B3*%
%TO.N,row4*%
X150836400Y-91682000D03*
%TO.P,U1,14,B2*%
%TO.N,col2*%
X150836400Y-94222000D03*
%TO.P,U1,13,B6*%
%TO.N,col1*%
X150836400Y-96762000D03*
%TO.P,U1,12,B5*%
%TO.N,unconnected-(U1-Pad12)*%
X166056400Y-96762000D03*
%TO.P,U1,11,B4*%
%TO.N,col10*%
X166056400Y-94222000D03*
%TO.P,U1,10,E6*%
%TO.N,col9*%
X166056400Y-91682000D03*
%TO.P,U1,9,D7*%
%TO.N,col8*%
X166056400Y-89142000D03*
%TO.P,U1,8,C6*%
%TO.N,row3*%
X166056400Y-86602000D03*
%TO.P,U1,7,D4*%
%TO.N,col6*%
X166056400Y-84062000D03*
%TO.P,U1,6,SCL*%
%TO.N,col7*%
X166056400Y-81522000D03*
%TO.P,U1,5,SDA*%
%TO.N,row2*%
X166056400Y-78982000D03*
%TO.P,U1,4,GND*%
%TO.N,gnd*%
X166056400Y-76442000D03*
%TO.P,U1,3,GND*%
X166056400Y-73902000D03*
%TO.P,U1,2,RX*%
%TO.N,unconnected-(U1-Pad2)*%
X166056400Y-71362000D03*
%TO.P,U1,1,TX*%
%TO.N,unconnected-(U1-Pad1)*%
X166056400Y-68822000D03*
%TD*%
M02*
