M48
; DRILL file {KiCad (6.0.1)} date Sun Jun  5 22:57:32 2022
; FORMAT={-:-/ absolute / inch / decimal}
; #@! TF.CreationDate,2022-06-05T22:57:32-04:00
; #@! TF.GenerationSoftware,Kicad,Pcbnew,(6.0.1)
; #@! TF.FileFunction,MixedPlating,1,2
FMAT,2
INCH
; #@! TA.AperFunction,Plated,PTH,ComponentDrill
T1C0.0320
; #@! TA.AperFunction,Plated,PTH,ComponentDrill
T2C0.0500
; #@! TA.AperFunction,Plated,PTH,ComponentDrill
T3C0.0512
; #@! TA.AperFunction,NonPlated,NPTH,ComponentDrill
T4C0.0354
; #@! TA.AperFunction,NonPlated,NPTH,ComponentDrill
T5C0.0390
; #@! TA.AperFunction,NonPlated,NPTH,ComponentDrill
T6C0.0670
; #@! TA.AperFunction,NonPlated,NPTH,ComponentDrill
T7C0.1350
%
G90
G05
T1
X5.9384Y-2.7095
X5.9384Y-2.8095
X5.9384Y-2.9095
X5.9384Y-3.0095
X5.9384Y-3.1095
X5.9384Y-3.2095
X5.9384Y-3.3095
X5.9384Y-3.4095
X5.9384Y-3.5095
X5.9384Y-3.6095
X5.9384Y-3.7095
X5.9384Y-3.8095
X5.9389Y-2.6069
X6.5377Y-2.6102
X6.5377Y-2.7095
X6.5377Y-2.8095
X6.5377Y-2.9095
X6.5377Y-3.0095
X6.5377Y-3.1095
X6.5377Y-3.2095
X6.5377Y-3.3095
X6.5377Y-3.4095
X6.5377Y-3.5095
X6.5377Y-3.6095
X6.5377Y-3.7095
X6.5377Y-3.8095
T2
X1.8658Y-4.0104
X2.0225Y-4.1554
X2.0948Y-3.3815
X2.2515Y-3.5265
X2.3237Y-2.7526
X2.4804Y-2.8976
X2.692Y-3.8125
X2.8487Y-3.9576
X2.9209Y-3.1836
X3.0776Y-3.3286
X3.1498Y-2.5547
X3.3065Y-2.6997
X3.4495Y-3.8033
X3.6062Y-3.9484
X3.6784Y-3.1744
X3.8351Y-3.3194
X3.9073Y-2.5455
X4.0467Y-4.2344
X4.064Y-2.6905
X4.2034Y-4.3794
X4.2757Y-3.6055
X4.4324Y-3.7505
X4.4726Y-5.2665
X4.5046Y-2.9765
X4.6017Y-5.4365
X4.6613Y-3.1216
X4.6669Y-4.6026
X4.8236Y-4.7476
X4.8958Y-3.9736
X5.0525Y-4.1186
X5.1089Y-5.6811
X5.1247Y-3.3447
X5.1721Y-5.885
X5.2814Y-3.4897
X6.9803Y-3.4816
X7.1051Y-5.9957
X7.1936Y-3.492
X7.2092Y-4.1105
X7.295Y-5.898
X7.4225Y-4.1209
X7.4382Y-4.7394
X7.6005Y-3.1134
X7.6514Y-4.7498
X7.6543Y-5.478
X7.8137Y-3.1238
X7.8294Y-3.7424
X7.8661Y-5.4512
X8.0426Y-3.7527
X8.0583Y-4.3713
X8.1977Y-2.6824
X8.2716Y-4.3817
X8.411Y-2.6927
X8.4266Y-3.3113
X8.6399Y-3.3217
X8.6555Y-3.9402
X8.8688Y-3.9506
X8.9552Y-2.6916
X9.1685Y-2.7019
X9.1841Y-3.3205
X9.3974Y-3.3309
X9.413Y-3.9494
X9.6263Y-3.9598
X9.7814Y-2.8894
X9.9946Y-2.8998
X10.0103Y-3.5184
X10.2235Y-3.5287
X10.2392Y-4.1473
X10.4525Y-4.1577
T3
X5.224Y-2.4778
X5.476Y-2.5222
T4
X7.1918Y-2.4603
X7.3082Y-2.4397
T5
X1.9654Y-3.7115
X2.1943Y-3.0826
X2.3517Y-3.8521
X2.4232Y-2.4536
X2.5806Y-3.2231
X2.7916Y-3.5136
X2.8095Y-2.5942
X3.0205Y-2.8847
X3.1778Y-3.6542
X3.2494Y-2.2557
X3.4067Y-3.0253
X3.5491Y-3.5044
X3.6356Y-2.3963
X3.778Y-2.8755
X3.9353Y-3.645
X4.0069Y-2.2466
X4.1463Y-3.9355
X4.1642Y-3.0161
X4.3752Y-3.3065
X4.3931Y-2.3871
X4.5326Y-4.076
X4.6041Y-2.6776
X4.6226Y-4.9894
X4.7615Y-3.4471
X4.7665Y-4.3036
X4.9785Y-5.1949
X4.9904Y-2.8182
X4.9954Y-3.6747
X5.1527Y-4.4442
X5.2243Y-3.0458
X5.3446Y-5.472
X5.3816Y-3.8153
X5.6088Y-5.7869
X5.6105Y-3.1863
X6.8583Y-5.7999
X6.8645Y-3.1886
X7.0934Y-3.8175
X7.1225Y-5.485
X7.2507Y-3.048
X7.3223Y-4.4464
X7.4796Y-3.6769
X7.4846Y-2.8204
X7.4893Y-5.2096
X7.7085Y-4.3059
X7.7135Y-3.4494
X7.8453Y-5.004
X7.8708Y-2.6798
X7.9424Y-4.0783
X8.0819Y-2.3894
X8.0998Y-3.3088
X8.3108Y-3.0183
X8.3287Y-3.9377
X8.4681Y-2.2488
X8.5397Y-3.6472
X8.697Y-2.8777
X8.8393Y-2.3986
X8.9259Y-3.5067
X9.0683Y-3.0275
X9.2256Y-2.258
X9.2972Y-3.6564
X9.4545Y-2.8869
X9.6655Y-2.5964
X9.6834Y-3.5158
X9.8944Y-3.2254
X10.0517Y-2.4559
X10.1233Y-3.8543
X10.2807Y-3.0848
X10.5096Y-3.7137
T6
X1.8985Y-3.8631
X2.1274Y-3.2342
X2.3055Y-4.0112
X2.3563Y-2.6052
X2.5344Y-3.3823
X2.7247Y-3.6652
X2.7633Y-2.7534
X2.9536Y-3.0363
X3.1316Y-3.8133
X3.1825Y-2.4074
X3.3605Y-3.1844
X3.4822Y-3.656
X3.5894Y-2.5555
X3.7111Y-3.0271
X3.8891Y-3.8041
X3.94Y-2.3982
X4.0794Y-4.0871
X4.118Y-3.1752
X4.3083Y-3.4581
X4.3469Y-2.5463
X4.4864Y-4.2352
X4.5304Y-5.1271
X4.5372Y-2.8292
X4.6996Y-4.4552
X4.7153Y-3.6063
X4.9054Y-5.3436
X4.9285Y-3.8263
X4.9442Y-2.9773
X5.1065Y-4.6034
X5.1574Y-3.1974
X5.2108Y-5.5699
X5.3354Y-3.9744
X5.4892Y-5.9016
X5.5643Y-3.3455
X6.9107Y-3.3477
X6.9779Y-5.9146
X7.1396Y-3.9767
X7.2563Y-5.5829
X7.3176Y-3.1996
X7.3685Y-4.6056
X7.5308Y-2.9796
X7.5465Y-3.8286
X7.5625Y-5.3583
X7.7597Y-3.6085
X7.7754Y-4.4575
X7.9375Y-5.1417
X7.9378Y-2.8315
X7.9886Y-4.2374
X8.1281Y-2.5485
X8.1667Y-3.4604
X8.357Y-3.1775
X8.3956Y-4.0893
X8.535Y-2.4004
X8.5859Y-3.8064
X8.7639Y-3.0293
X8.8855Y-2.5577
X8.9928Y-3.6583
X9.1145Y-3.1866
X9.2925Y-2.4096
X9.3434Y-3.8156
X9.5214Y-3.0385
X9.7117Y-2.7556
X9.7503Y-3.6675
X9.9406Y-3.3845
X10.1187Y-2.6075
X10.1695Y-4.0134
X10.3476Y-3.2364
X10.5765Y-3.8653
T7
X2.102Y-3.9372
X2.3309Y-3.3082
X2.5598Y-2.6793
X2.9281Y-3.7393
X3.1571Y-3.1103
X3.386Y-2.4814
X3.6856Y-3.7301
X3.9145Y-3.1012
X4.1435Y-2.4722
X4.2829Y-4.1611
X4.5118Y-3.5322
X4.7179Y-5.2353
X4.7407Y-2.9033
X4.903Y-4.5293
X5.1319Y-3.9004
X5.35Y-5.7357
X5.3609Y-3.2714
X7.1141Y-3.2737
X7.1171Y-5.7487
X7.3431Y-3.9026
X7.572Y-4.5315
X7.7343Y-2.9055
X7.75Y-5.25
X7.9632Y-3.5344
X8.1921Y-4.1634
X8.3315Y-2.4745
X8.5604Y-3.1034
X8.7894Y-3.7323
X9.089Y-2.4837
X9.3179Y-3.1126
X9.5468Y-3.7415
X9.9152Y-2.6815
X10.1441Y-3.3105
X10.373Y-3.9394
T0
M30
