%TF.GenerationSoftware,KiCad,Pcbnew,(6.0.1)*%
%TF.CreationDate,2022-06-05T22:57:28-04:00*%
%TF.ProjectId,sweep-squared,73776565-702d-4737-9175-617265642e6b,rev?*%
%TF.SameCoordinates,Original*%
%TF.FileFunction,Paste,Top*%
%TF.FilePolarity,Positive*%
%FSLAX46Y46*%
G04 Gerber Fmt 4.6, Leading zero omitted, Abs format (unit mm)*
G04 Created by KiCad (PCBNEW (6.0.1)) date 2022-06-05 22:57:28*
%MOMM*%
%LPD*%
G01*
G04 APERTURE LIST*
G04 Aperture macros list*
%AMRotRect*
0 Rectangle, with rotation*
0 The origin of the aperture is its center*
0 $1 length*
0 $2 width*
0 $3 Rotation angle, in degrees counterclockwise*
0 Add horizontal line*
21,1,$1,$2,0,0,$3*%
G04 Aperture macros list end*
%ADD10RotRect,0.900000X1.200000X290.000000*%
%ADD11RotRect,0.900000X1.200000X250.000000*%
%ADD12RotRect,0.900000X1.200000X240.000000*%
%ADD13RotRect,0.900000X1.250000X10.000000*%
%ADD14RotRect,0.900000X0.900000X10.000000*%
%ADD15RotRect,0.900000X1.200000X320.000000*%
%ADD16RotRect,0.900000X1.200000X220.000000*%
%ADD17RotRect,0.900000X1.200000X300.000000*%
G04 APERTURE END LIST*
D10*
%TO.C,D29*%
X249416055Y-88628475D03*
X248287389Y-85527489D03*
%TD*%
%TO.C,D24*%
X243564332Y-72692339D03*
X242435666Y-69591353D03*
%TD*%
%TO.C,D30*%
X270269194Y-93747885D03*
X269140528Y-90646899D03*
%TD*%
D11*
%TO.C,D6*%
X52216512Y-77684775D03*
X53345178Y-74583789D03*
%TD*%
D12*
%TO.C,D31*%
X114070179Y-125566401D03*
X115720179Y-122708517D03*
%TD*%
D11*
%TO.C,D7*%
X73214154Y-72692339D03*
X74342820Y-69591353D03*
%TD*%
%TO.C,D15*%
X117547256Y-108715031D03*
X118675922Y-105614045D03*
%TD*%
D10*
%TO.C,D17*%
X203358294Y-67388455D03*
X202229628Y-64287469D03*
%TD*%
D11*
%TO.C,D12*%
X67362385Y-88637723D03*
X68491051Y-85536737D03*
%TD*%
%TO.C,D13*%
X86617204Y-88423083D03*
X87745870Y-85322097D03*
%TD*%
%TO.C,D1*%
X58018180Y-61732219D03*
X59146846Y-58631233D03*
%TD*%
D13*
%TO.C,SW_POWER1*%
X182294503Y-64664184D03*
X183771714Y-64403712D03*
X186726137Y-63882768D03*
D14*
X187602776Y-60504213D03*
X187984802Y-62670790D03*
X180315198Y-61789210D03*
X180697224Y-63955787D03*
%TD*%
D11*
%TO.C,D9*%
X107629282Y-83366108D03*
X108757948Y-80265122D03*
%TD*%
D15*
%TO.C,D33*%
X182674494Y-136791355D03*
X180146548Y-134670155D03*
%TD*%
D11*
%TO.C,D11*%
X46450795Y-93673185D03*
X47579461Y-90572199D03*
%TD*%
D10*
%TO.C,D22*%
X209364333Y-83409134D03*
X208235667Y-80308148D03*
%TD*%
%TO.C,D18*%
X218502847Y-56551769D03*
X217374181Y-53450783D03*
%TD*%
D11*
%TO.C,D4*%
X113409436Y-67398723D03*
X114538102Y-64297737D03*
%TD*%
D10*
%TO.C,D21*%
X193417487Y-92768564D03*
X192288821Y-89667578D03*
%TD*%
%TO.C,D23*%
X224309324Y-72462869D03*
X223180658Y-69361883D03*
%TD*%
D11*
%TO.C,D5*%
X129186256Y-76781236D03*
X130314922Y-73680250D03*
%TD*%
D16*
%TO.C,D32*%
X133983612Y-136441431D03*
X136511558Y-134320231D03*
%TD*%
D10*
%TO.C,D26*%
X199166691Y-108737031D03*
X198038025Y-105636045D03*
%TD*%
D11*
%TO.C,D14*%
X101799026Y-99354518D03*
X102927692Y-96253532D03*
%TD*%
D10*
%TO.C,D28*%
X230028525Y-88444108D03*
X228899859Y-85343122D03*
%TD*%
D11*
%TO.C,D2*%
X79010821Y-56704524D03*
X80139487Y-53603538D03*
%TD*%
D17*
%TO.C,D34*%
X202586625Y-125881773D03*
X200936625Y-123023889D03*
%TD*%
D10*
%TO.C,D16*%
X187606572Y-76788407D03*
X186477906Y-73687421D03*
%TD*%
%TO.C,D27*%
X214914922Y-99397544D03*
X213786256Y-96296558D03*
%TD*%
%TO.C,D25*%
X264663217Y-77729263D03*
X263534551Y-74628277D03*
%TD*%
D11*
%TO.C,D3*%
X98263564Y-56446263D03*
X99392230Y-53345277D03*
%TD*%
D10*
%TO.C,D20*%
X258760307Y-61717390D03*
X257631641Y-58616404D03*
%TD*%
D11*
%TO.C,D8*%
X92476333Y-72455210D03*
X93604999Y-69354224D03*
%TD*%
%TO.C,D10*%
X123356000Y-92726133D03*
X124484666Y-89625147D03*
%TD*%
D10*
%TO.C,D19*%
X237795218Y-56672147D03*
X236666552Y-53571161D03*
%TD*%
M02*
